
<svg xmlns="http://www.w3.org/2000/svg" viewBox="0 0 55 55">
	<style type="text/css">
		.st0{fill:url(#SVGID_1_);}
		.st1{fill:url(#SVGID_2_);filter:url(#sudoku-filter-2);}
		.st2{fill:#FFFFFF;}
		.st3{fill:#919191;}
		.st4{fill:#1593FC;}
		.st5{fill:#BCBCBC;}
		.st6{fill:#7F7F7F;}
		.st7{fill:#AFAFAF;}
		.st8{fill:#E8AD56;}
		.st9{fill:#B77916;}
		.st10{fill:#D8932E;}
		.st11{fill:#FFB600;}
		.st12{fill:#F4F4F4;}
		.st13{fill:#E0E0E0;}
	</style>
	<linearGradient id="SVGID_1_" gradientUnits="userSpaceOnUse" x1="27.5" y1="54.6001" x2="27.5" y2="3.7294" gradientTransform="matrix(1 0 0 -1 0 56)">
		<stop  offset="0" style="stop-color:#FFCC00"/>
		<stop  offset="1" style="stop-color:#DDAA00"/>
	</linearGradient>
	<linearGradient id="SVGID_2_" gradientUnits="userSpaceOnUse" x1="5.3405" y1="28.5" x2="49.6595" y2="28.5" gradientTransform="matrix(1 0 0 -1 0 56)">
		<stop  offset="0" style="stop-color:#999999"/>
		<stop  offset="0.17" style="stop-color:#EEEEEE"/>
		<stop  offset="0.83" style="stop-color:#EEEEEE"/>
		<stop  offset="1" style="stop-color:#999999"/>
	</linearGradient>
	<filter x="-6.1%" y="-3.9%" width="112.1%" height="113.2%" filterUnits="objectBoundingBox" id="sudoku-filter-2">
		<feOffset dx="0" dy=".5" in="SourceAlpha" result="sudokuShadowOffsetOuter1"></feOffset>
		<feGaussianBlur stdDeviation=".5" in="sudokuShadowOffsetOuter1" result="sudokuShadowBlurOuter1"></feGaussianBlur>
		<feColorMatrix values="0 0 0 0 0   0 0 0 0 0   0 0 0 0 0  0 0 0 0.5 0" type="matrix" in="sudokuShadowBlurOuter1" result="sudokuShadowMatrixOuter1"></feColorMatrix>
		<feMerge>
			<feMergeNode in="sudokuShadowMatrixOuter1"></feMergeNode>
			<feMergeNode in="SourceGraphic"></feMergeNode>
		</feMerge>
	</filter>
	<path class="st0" d="M53,44.1c0,4.9-4,8.9-8.9,8.9H10.9C6,53,2,49,2,44.1V10.9C2,6,6,2,10.9,2h33.2C49,2,53,6,53,10.9V44.1z"/>
	<path class="st1" d="M49.7,43c0,3.7-3,6.6-6.6,6.6H12c-3.7,0-6.6-3-6.6-6.6V12c0-3.7,3-6.6,6.6-6.6h31c3.7,0,6.6,3,6.6,6.6V43z"/>
	<path class="st2" d="M49.7,39.7c0,3.7-3,6.6-6.6,6.6H12c-3.7,0-6.6-3-6.6-6.6V12c0-3.7,3-6.6,6.6-6.6h31c3.7,0,6.6,3,6.6,6.6V39.7z"/>
	<g id="grid">
		<rect x="11.7" y="30.5" class="st3" width="31.7" height="0.6"/>
		<rect x="11.7" y="20.2" class="st3" width="31.7" height="0.6"/>
		<path class="st3" d="M43.3,9.9H11.7c-0.2,0-0.3-0.1-0.3-0.3c0-0.2,0.1-0.3,0.3-0.3h31.7c0.2,0,0.3,0.1,0.3,0.3 C43.6,9.8,43.5,9.9,43.3,9.9z"/>
		<path class="st3" d="M43.3,41.6H11.7c-0.2,0-0.3-0.1-0.3-0.3s0.1-0.3,0.3-0.3h31.7c0.2,0,0.3,0.1,0.3,0.3S43.5,41.6,43.3,41.6z"/>
		<rect x="22" y="9.7" class="st3" width="0.6" height="31.7"/>
		<path class="st3" d="M11.7,41.6c-0.2,0-0.3-0.1-0.3-0.3V9.7c0-0.2,0.1-0.3,0.3-0.3s0.3,0.1,0.3,0.3v31.7 C11.9,41.5,11.8,41.6,11.7,41.6z"/>
		<path class="st3" d="M43.3,41.6c-0.2,0-0.3-0.1-0.3-0.3V9.7c0-0.2,0.1-0.3,0.3-0.3c0.2,0,0.3,0.1,0.3,0.3v31.7 C43.6,41.5,43.5,41.6,43.3,41.6z"/>
		<rect x="32.3" y="9.7" class="st3" width="0.6" height="31.7"/>
	</g>
	<g id="nrs">
		<path class="st4" d="M18.8,16.9h-0.6v1.2H17v-1.2h-2.3v-1l2.1-3.5h1.3V16h0.6L18.8,16.9L18.8,16.9z M17,16v-2.5L15.6,16H17z"/>
		<path class="st4" d="M27.9,13.9c0-0.1,0-0.2-0.1-0.3c-0.1-0.2-0.3-0.3-0.5-0.3c-0.4,0-0.6,0.2-0.8,0.6c-0.1,0.2-0.1,0.6-0.2,1 c0.1-0.2,0.3-0.3,0.5-0.4c0.2-0.1,0.4-0.1,0.6-0.1c0.5,0,0.9,0.2,1.2,0.5c0.3,0.3,0.5,0.8,0.5,1.3c0,0.5-0.2,1-0.5,1.4 c-0.3,0.4-0.8,0.6-1.5,0.6c-0.7,0-1.3-0.3-1.6-0.9c-0.3-0.5-0.4-1.1-0.4-1.8c0-0.4,0-0.8,0.1-1.1c0.1-0.5,0.2-0.9,0.4-1.2 c0.2-0.3,0.4-0.5,0.6-0.7c0.3-0.2,0.6-0.3,0.9-0.3c0.5,0,1,0.1,1.3,0.4c0.3,0.3,0.5,0.6,0.5,1.1L27.9,13.9L27.9,13.9z M26.5,17.1 c0.2,0.2,0.4,0.3,0.6,0.3c0.3,0,0.4-0.1,0.6-0.3c0.1-0.2,0.2-0.4,0.2-0.7c0-0.3-0.1-0.6-0.2-0.8c-0.2-0.2-0.4-0.3-0.6-0.3 c-0.2,0-0.4,0.1-0.5,0.2c-0.2,0.2-0.3,0.4-0.3,0.8C26.3,16.6,26.4,16.9,26.5,17.1z"/>
		<path class="st4" d="M36,36.3c0.1-0.3,0.4-0.5,0.6-0.6c-0.3-0.2-0.5-0.4-0.5-0.6c-0.1-0.2-0.1-0.4-0.1-0.6c0-0.4,0.2-0.8,0.5-1.1 c0.3-0.3,0.8-0.4,1.3-0.4c0.6,0,1,0.1,1.3,0.4c0.3,0.3,0.5,0.6,0.5,1.1c0,0.2,0,0.4-0.1,0.6c-0.1,0.2-0.3,0.4-0.5,0.6 c0.3,0.2,0.5,0.4,0.6,0.6c0.1,0.3,0.2,0.6,0.2,0.9c0,0.5-0.2,0.9-0.5,1.2c-0.4,0.3-0.9,0.5-1.5,0.5c-0.6,0-1.1-0.2-1.5-0.5 c-0.3-0.3-0.5-0.7-0.5-1.2C35.8,36.8,35.9,36.5,36,36.3z M37.2,37.7c0.1,0.2,0.3,0.2,0.6,0.2c0.3,0,0.5-0.1,0.6-0.2 c0.1-0.2,0.2-0.4,0.2-0.7c0-0.3-0.1-0.5-0.2-0.7c-0.1-0.2-0.3-0.2-0.6-0.2c-0.3,0-0.5,0.1-0.6,0.2c-0.1,0.2-0.2,0.4-0.2,0.7 C37,37.4,37.1,37.6,37.2,37.7z M37.3,35.1c0.1,0.1,0.3,0.2,0.5,0.2c0.2,0,0.4-0.1,0.5-0.2c0.1-0.1,0.2-0.3,0.2-0.5 c0-0.2-0.1-0.4-0.2-0.5c-0.1-0.1-0.3-0.2-0.5-0.2c-0.2,0-0.4,0.1-0.5,0.2c-0.1,0.1-0.2,0.3-0.2,0.5C37.1,34.8,37.2,35,37.3,35.1z" />
	</g>
	<g id="pencil" filter="url(#sudoku-filter-2)">
		<path class="st5" d="M44,17.9l1.9-1.9c1.1-1,1.1-2.8,0-3.8l-3.8-3.8c-1-1.1-2.8-1.1-3.8,0l-1.9,1.9L44,17.9z"/>
		<path class="st6" d="M44,17.9l1.9-1.9c1.1-1,1.1-2.8,0-3.8L44,10.2c0,0-0.9,0.9-1.9,1.9L40.2,14L44,17.9z"/>
		<path class="st7" d="M42.1,15.9L44,14c1.1-1,1.7-2.1,0.6-3.2l-1.3-1.3c-1.1-1.1-2.1-0.4-3.2,0.6l-1.9,1.9L42.1,15.9z"/>
		<rect x="19.2" y="17.2" transform="matrix(0.7096 -0.7047 0.7047 0.7096 -6.8149 28.7569)" class="st8" width="24.5" height="10.8"/>
		<rect x="21.8" y="23.4" transform="matrix(0.7096 -0.7047 0.7047 0.7096 -7.8773 31.2845)" class="st9" width="24.5" height="3.6"/>
		<polyline class="st10" points="38.3,12.1 42.1,15.9 24.7,33.2 20.9,29.3 	"/>
		<polygon class="st11" points="14.8,39.2 19,27.4 26.6,35.1 	"/>
		<polygon points="14.8,39.2 16.3,35.1 19,37.8 	"/>
		<rect x="39.3" y="9" transform="matrix(0.7096 -0.7047 0.7047 0.7096 1.4322 32.22)" class="st12" width="1" height="10.8"/>
		<rect x="40.3" y="11.3" transform="matrix(0.7095 -0.7047 0.7047 0.7095 1.0368 33.1736)" class="st13" width="1" height="8.1"/>
		<rect x="42.2" y="15.9" transform="matrix(0.7096 -0.7046 0.7046 0.7096 0.2358 35.0571)" class="st5" width="1" height="2.7"/>
	</g>
</svg>
